<?xml version="1.0" encoding="UTF-8" standalone="no"?>
<!DOCTYPE svg PUBLIC "-//W3C//DTD SVG 1.1//EN"
 "http://www.w3.org/Graphics/SVG/1.1/DTD/svg11.dtd">
<!-- Generated by graphviz version 12.1.2 (0)
 -->
<!-- Pages: 1 -->
<svg width="322pt" height="476pt"
 viewBox="0.00 0.00 321.53 476.00" xmlns="http://www.w3.org/2000/svg" xmlns:xlink="http://www.w3.org/1999/xlink">
<g id="graph0" class="graph" transform="scale(1 1) rotate(0) translate(4 472)">
<polygon fill="white" stroke="none" points="-4,4 -4,-472 317.53,-472 317.53,4 -4,4"/>
<!-- n47 -->
<g id="node1" class="node">
<title>n47</title>
<ellipse fill="none" stroke="black" cx="201" cy="-306" rx="30.16" ry="18"/>
<text text-anchor="middle" x="201" y="-301.32" font-family="Times,serif" font-size="14.00">n47</text>
</g>
<!-- n53 -->
<g id="node2" class="node">
<title>n53</title>
<ellipse fill="none" stroke="black" cx="201" cy="-162" rx="30.16" ry="18"/>
<text text-anchor="middle" x="201" y="-157.32" font-family="Times,serif" font-size="14.00">n53</text>
</g>
<!-- n47&#45;&gt;n53 -->
<g id="edge1" class="edge">
<title>n47&#45;&gt;n53</title>
<path fill="none" stroke="black" d="M201,-287.59C201,-263.61 201,-220.14 201,-191.42"/>
<polygon fill="black" stroke="black" points="204.5,-191.62 201,-181.62 197.5,-191.62 204.5,-191.62"/>
</g>
<!-- n13 -->
<g id="node4" class="node">
<title>n13</title>
<ellipse fill="none" stroke="black" cx="153" cy="-18" rx="30.16" ry="18"/>
<text text-anchor="middle" x="153" y="-13.32" font-family="Times,serif" font-size="14.00">n13</text>
</g>
<!-- n47&#45;&gt;n13 -->
<g id="edge14" class="edge">
<title>n47&#45;&gt;n13</title>
<path fill="none" stroke="black" d="M172.35,-299.43C147.09,-292.84 111.77,-279.13 95,-252 53.44,-184.75 105.29,-89.26 134.96,-44.28"/>
<polygon fill="black" stroke="black" points="137.7,-46.48 140.41,-36.23 131.9,-42.55 137.7,-46.48"/>
</g>
<!-- n61 -->
<g id="node5" class="node">
<title>n61</title>
<ellipse fill="none" stroke="black" cx="134" cy="-234" rx="30.16" ry="18"/>
<text text-anchor="middle" x="134" y="-229.32" font-family="Times,serif" font-size="14.00">n61</text>
</g>
<!-- n47&#45;&gt;n61 -->
<g id="edge17" class="edge">
<title>n47&#45;&gt;n61</title>
<path fill="none" stroke="black" d="M186.46,-289.81C177.68,-280.64 166.31,-268.76 156.4,-258.4"/>
<polygon fill="black" stroke="black" points="159,-256.06 149.56,-251.25 153.94,-260.9 159,-256.06"/>
</g>
<!-- n29 -->
<g id="node7" class="node">
<title>n29</title>
<ellipse fill="none" stroke="black" cx="235" cy="-90" rx="30.16" ry="18"/>
<text text-anchor="middle" x="235" y="-85.33" font-family="Times,serif" font-size="14.00">n29</text>
</g>
<!-- n47&#45;&gt;n29 -->
<g id="edge19" class="edge">
<title>n47&#45;&gt;n29</title>
<path fill="none" stroke="black" d="M207.96,-288.4C217.43,-264.81 233.9,-220 240,-180 242.41,-164.18 240.75,-159.98 240,-144 239.62,-136.03 238.93,-127.41 238.18,-119.48"/>
<polygon fill="black" stroke="black" points="241.68,-119.26 237.18,-109.66 234.71,-119.97 241.68,-119.26"/>
</g>
<!-- n53&#45;&gt;n13 -->
<g id="edge21" class="edge">
<title>n53&#45;&gt;n13</title>
<path fill="none" stroke="black" d="M195.21,-143.87C187.02,-119.65 171.97,-75.12 162.23,-46.31"/>
<polygon fill="black" stroke="black" points="165.66,-45.53 159.15,-37.18 159.03,-47.78 165.66,-45.53"/>
</g>
<!-- n53&#45;&gt;n29 -->
<g id="edge10" class="edge">
<title>n53&#45;&gt;n29</title>
<path fill="none" stroke="black" d="M209.06,-144.41C212.95,-136.39 217.72,-126.57 222.11,-117.54"/>
<polygon fill="black" stroke="black" points="225.12,-119.36 226.34,-108.83 218.82,-116.3 225.12,-119.36"/>
</g>
<!-- n97 -->
<g id="node3" class="node">
<title>n97</title>
<ellipse fill="none" stroke="black" cx="132" cy="-450" rx="30.16" ry="18"/>
<text text-anchor="middle" x="132" y="-445.32" font-family="Times,serif" font-size="14.00">n97</text>
</g>
<!-- n97&#45;&gt;n47 -->
<g id="edge4" class="edge">
<title>n97&#45;&gt;n47</title>
<path fill="none" stroke="black" d="M140.05,-432.43C151.84,-408.17 173.93,-362.71 188.03,-333.7"/>
<polygon fill="black" stroke="black" points="191.12,-335.35 192.34,-324.82 184.82,-332.29 191.12,-335.35"/>
</g>
<!-- n97&#45;&gt;n53 -->
<g id="edge12" class="edge">
<title>n97&#45;&gt;n53</title>
<path fill="none" stroke="black" d="M122.44,-432.57C100.41,-392.31 51.18,-286.9 95,-216 109.47,-192.58 137.78,-179.16 161.5,-171.69"/>
<polygon fill="black" stroke="black" points="162.25,-175.12 170.9,-168.99 160.32,-168.39 162.25,-175.12"/>
</g>
<!-- n97&#45;&gt;n13 -->
<g id="edge2" class="edge">
<title>n97&#45;&gt;n13</title>
<path fill="none" stroke="black" d="M109.31,-437.82C71.57,-417.45 0,-370.45 0,-307 0,-307 0,-307 0,-161 0,-97.09 72.61,-53.84 117.79,-33.12"/>
<polygon fill="black" stroke="black" points="118.96,-36.43 126.69,-29.18 116.13,-30.03 118.96,-36.43"/>
</g>
<!-- n97&#45;&gt;n61 -->
<g id="edge3" class="edge">
<title>n97&#45;&gt;n61</title>
<path fill="none" stroke="black" d="M132.16,-431.85C132.5,-395.14 133.31,-308.66 133.73,-263.53"/>
<polygon fill="black" stroke="black" points="137.23,-263.78 133.82,-253.75 130.23,-263.71 137.23,-263.78"/>
</g>
<!-- n75 -->
<g id="node6" class="node">
<title>n75</title>
<ellipse fill="none" stroke="black" cx="235" cy="-378" rx="30.16" ry="18"/>
<text text-anchor="middle" x="235" y="-373.32" font-family="Times,serif" font-size="14.00">n75</text>
</g>
<!-- n97&#45;&gt;n75 -->
<g id="edge16" class="edge">
<title>n97&#45;&gt;n75</title>
<path fill="none" stroke="black" d="M151.37,-435.83C166.91,-425.27 188.94,-410.3 206.49,-398.37"/>
<polygon fill="black" stroke="black" points="208.16,-401.47 214.46,-392.96 204.22,-395.68 208.16,-401.47"/>
</g>
<!-- n97&#45;&gt;n29 -->
<g id="edge9" class="edge">
<title>n97&#45;&gt;n29</title>
<path fill="none" stroke="black" d="M162.2,-447.13C195.63,-443.29 248.2,-431.57 274,-396 339.77,-305.34 311.46,-248.82 272,-144 268.15,-133.78 261.88,-123.66 255.58,-115.05"/>
<polygon fill="black" stroke="black" points="258.42,-113 249.52,-107.25 252.89,-117.29 258.42,-113"/>
</g>
<!-- n61&#45;&gt;n53 -->
<g id="edge11" class="edge">
<title>n61&#45;&gt;n53</title>
<path fill="none" stroke="black" d="M148.54,-217.81C157.32,-208.64 168.69,-196.76 178.6,-186.4"/>
<polygon fill="black" stroke="black" points="181.06,-188.9 185.44,-179.25 176,-184.06 181.06,-188.9"/>
</g>
<!-- n61&#45;&gt;n13 -->
<g id="edge6" class="edge">
<title>n61&#45;&gt;n13</title>
<path fill="none" stroke="black" d="M135.28,-215.6C136.62,-197.65 138.83,-168.86 141,-144 143.88,-110.96 147.58,-73.06 150.1,-47.73"/>
<polygon fill="black" stroke="black" points="153.57,-48.19 151.09,-37.89 146.61,-47.49 153.57,-48.19"/>
</g>
<!-- n61&#45;&gt;n29 -->
<g id="edge13" class="edge">
<title>n61&#45;&gt;n29</title>
<path fill="none" stroke="black" d="M136.12,-215.83C139.18,-196.77 146.29,-165.82 162,-144 172.63,-129.23 188.65,-116.95 202.97,-107.94"/>
<polygon fill="black" stroke="black" points="204.44,-111.14 211.23,-103.01 200.85,-105.13 204.44,-111.14"/>
</g>
<!-- n75&#45;&gt;n47 -->
<g id="edge15" class="edge">
<title>n75&#45;&gt;n47</title>
<path fill="none" stroke="black" d="M226.94,-360.41C223.05,-352.39 218.28,-342.57 213.89,-333.54"/>
<polygon fill="black" stroke="black" points="217.18,-332.3 209.66,-324.83 210.88,-335.36 217.18,-332.3"/>
</g>
<!-- n75&#45;&gt;n53 -->
<g id="edge7" class="edge">
<title>n75&#45;&gt;n53</title>
<path fill="none" stroke="black" d="M237.03,-359.84C238.15,-349.48 239.44,-336 240,-324 240.75,-308.02 242.41,-303.82 240,-288 234.71,-253.31 221.62,-215.01 212.06,-190.06"/>
<polygon fill="black" stroke="black" points="215.42,-189.04 208.51,-181.01 208.9,-191.6 215.42,-189.04"/>
</g>
<!-- n75&#45;&gt;n13 -->
<g id="edge20" class="edge">
<title>n75&#45;&gt;n13</title>
<path fill="none" stroke="black" d="M248.59,-361.95C256.81,-351.93 266.7,-338.07 272,-324 311.46,-219.18 337.22,-164.45 274,-72 255.74,-45.3 220.86,-31.93 193.23,-25.31"/>
<polygon fill="black" stroke="black" points="194.27,-21.95 183.76,-23.26 192.79,-28.8 194.27,-21.95"/>
</g>
<!-- n75&#45;&gt;n61 -->
<g id="edge18" class="edge">
<title>n75&#45;&gt;n61</title>
<path fill="none" stroke="black" d="M212.53,-365.76C196.33,-356.59 175.08,-342.18 162,-324 149.12,-306.1 142.02,-282.06 138.19,-263.48"/>
<polygon fill="black" stroke="black" points="141.64,-262.87 136.4,-253.66 134.75,-264.13 141.64,-262.87"/>
</g>
<!-- n75&#45;&gt;n29 -->
<g id="edge5" class="edge">
<title>n75&#45;&gt;n29</title>
<path fill="none" stroke="black" d="M243.1,-360.26C247.58,-350.05 252.71,-336.58 255,-324 269.36,-245.3 269.36,-222.7 255,-144 253.42,-135.35 250.51,-126.28 247.38,-118.14"/>
<polygon fill="black" stroke="black" points="250.72,-117.05 243.67,-109.14 244.25,-119.72 250.72,-117.05"/>
</g>
<!-- n29&#45;&gt;n13 -->
<g id="edge8" class="edge">
<title>n29&#45;&gt;n13</title>
<path fill="none" stroke="black" d="M218.41,-74.83C206.92,-65.03 191.42,-51.8 178.4,-40.68"/>
<polygon fill="black" stroke="black" points="180.88,-38.2 171,-34.37 176.34,-43.52 180.88,-38.2"/>
</g>
</g>
</svg>
